<svg width="500" height="500" viewBox="0 0 500 500" fill="none" xmlns="http://www.w3.org/2000/svg">
<circle cx="250" cy="250" r="250" fill="#F8F8FF"/>
<path d="M206.67 149.556H166.692C150.699 149.556 142.697 149.556 136.588 152.668C131.215 155.406 126.85 159.771 124.112 165.144C121 171.252 121 179.255 121 195.247V332.314C121 348.307 121 356.299 124.112 362.407C126.85 367.78 131.215 372.153 136.588 374.89C142.691 378 150.683 378 166.645 378H303.8C319.761 378 327.742 378 333.845 374.89C339.217 372.153 343.598 367.776 346.335 362.403C349.444 356.301 349.444 348.317 349.444 332.355V292.333M292.333 163.833L206.667 249.5V292.333H249.5L335.167 206.667M292.333 163.833L335.167 121L378 163.833L335.167 206.667M292.333 163.833L335.167 206.667" stroke="url(#paint0_linear_2_6)" stroke-width="28.5556" stroke-linecap="round" stroke-linejoin="round"/>
<defs>
<linearGradient id="paint0_linear_2_6" x1="249.5" y1="121" x2="249.5" y2="378" gradientUnits="userSpaceOnUse">
<stop stop-color="#EC4899"/>
<stop offset="1" stop-color="#6366F1"/>
</linearGradient>
</defs>
</svg>
